<?xml version="1.0"?>
<svg xmlns="http://www.w3.org/2000/svg" xmlns:xlink="http://www.w3.org/1999/xlink" xmlns:svgjs="http://svgjs.com/svgjs" version="1.1" width="20" height="20" x="0" y="0" viewBox="0 0 24 24" style="enable-background:new 0 0 512 512" xml:space="preserve" class=""><g><g xmlns="http://www.w3.org/2000/svg"><g><path d="m22.841 17.788c-.142-.182-.36-.288-.591-.288h-20.5c-.231 0-.449.106-.591.288-.142.183-.192.42-.136.644l1 4c.083.334.383.568.727.568h18.5c.344 0 .644-.234.728-.568l1-4c.056-.224.005-.461-.137-.644z" fill="#1e1e1e" data-original="#000000" style="" class=""/></g></g><g xmlns="http://www.w3.org/2000/svg"><g><g><path d="m12 7.5c-.552 0-1-.447-1-1v-2c0-.553.448-1 1-1s1 .447 1 1v2c0 .553-.448 1-1 1z" fill="#1e1e1e" data-original="#000000" style="" class=""/></g></g></g><g xmlns="http://www.w3.org/2000/svg"><g><circle cx="12" cy="3" r="2" fill="#1e1e1e" data-original="#000000" style="" class=""/></g></g><g xmlns="http://www.w3.org/2000/svg"><g><path d="m12.07 6c-5.5-.06-10.27 4.28-11.02 9.75h21.78c-.74-5.37-5.34-9.69-10.76-9.75zm6.65 9.07c-.41 0-.75-.34-.74-.75.02-2.35-1.86-4.28-4.21-4.3-.41-.01-.74-.34-.74-.76.01-.41.35-.75.76-.74 3.17.03 5.72 2.64 5.69 5.81-.01.42-.35.75-.76.74z" fill="#1e1e1e" data-original="#000000" style="" class=""/></g></g><g xmlns="http://www.w3.org/2000/svg"><g><path d="m23 17.25h-22c-.552 0-1 .447-1 1s.448 1 1 1h22c.552 0 1-.447 1-1s-.448-1-1-1z" fill="#1e1e1e" data-original="#000000" style="" class=""/></g></g></g></svg>
