<svg width="281" height="140" viewBox="0 0 281 140" fill="none" xmlns="http://www.w3.org/2000/svg">
<path d="M116.198 25.1956C131.832 11.0273 155.782 11.4384 170.921 26.1349L209.32 63.4127C235.218 88.555 217.196 132.432 181.102 132.111L102.342 131.411C65.9258 131.087 48.8521 86.2278 75.8371 61.7726L116.198 25.1956Z" fill="#FEBB7D" fill-opacity="0.59"/>
<path d="M98 102C98 102 98.4639 119.425 143.464 119.987C188.464 120.55 188 102 188 102" stroke="#960100" stroke-width="3"/>
<path d="M177 71C179.761 71 182 68.7614 182 66C182 63.2386 179.761 61 177 61C174.239 61 172 63.2386 172 66C172 68.7614 174.239 71 177 71Z" fill="#960100"/>
<path d="M122 71C124.761 71 127 68.7614 127 66C127 63.2386 124.761 61 122 61C119.239 61 117 63.2386 117 66C117 68.7614 119.239 71 122 71Z" fill="#960100"/>
<path d="M115.84 49C119.584 49 122.944 49.672 125.92 51.016C128.896 52.312 131.416 54.088 133.48 56.344C135.592 58.552 137.2 61.144 138.304 64.12C139.456 67.048 140.032 70.12 140.032 73.336C140.032 76.936 139.36 80.248 138.016 83.272C136.72 86.296 134.92 88.888 132.616 91.048C130.312 93.208 127.624 94.912 124.552 96.16C121.528 97.36 118.288 97.96 114.832 97.96C111.136 97.96 107.8 97.288 104.824 95.944C101.896 94.6 99.4 92.824 97.336 90.616C95.32 88.408 93.76 85.864 92.656 82.984C91.552 80.104 91 77.104 91 73.984C91 70.912 91.552 67.888 92.656 64.912C93.76 61.888 95.368 59.2 97.48 56.848C99.64 54.496 102.256 52.6 105.328 51.16C108.4 49.72 111.904 49 115.84 49ZM115.768 95.44C118.984 95.296 121.792 94.576 124.192 93.28C126.64 91.936 128.68 90.256 130.312 88.24C131.944 86.176 133.144 83.92 133.912 81.472C134.728 79.024 135.136 76.6 135.136 74.2C135.136 71.56 134.656 68.896 133.696 66.208C132.736 63.52 131.368 61.096 129.592 58.936C127.816 56.728 125.68 54.952 123.184 53.608C120.736 52.216 117.976 51.52 114.904 51.52C111.928 51.52 109.264 52.192 106.912 53.536C104.56 54.832 102.544 56.512 100.864 58.576C99.232 60.64 97.984 62.944 97.12 65.488C96.256 68.032 95.824 70.528 95.824 72.976C95.824 75.616 96.328 78.28 97.336 80.968C98.344 83.608 99.736 86.008 101.512 88.168C103.288 90.328 105.376 92.08 107.776 93.424C110.224 94.768 112.888 95.44 115.768 95.44ZM170.613 49C174.357 49 177.717 49.672 180.693 51.016C183.669 52.312 186.189 54.088 188.253 56.344C190.365 58.552 191.973 61.144 193.077 64.12C194.229 67.048 194.805 70.12 194.805 73.336C194.805 76.936 194.133 80.248 192.789 83.272C191.493 86.296 189.693 88.888 187.389 91.048C185.085 93.208 182.397 94.912 179.325 96.16C176.301 97.36 173.061 97.96 169.605 97.96C165.909 97.96 162.573 97.288 159.597 95.944C156.669 94.6 154.173 92.824 152.109 90.616C150.093 88.408 148.533 85.864 147.429 82.984C146.325 80.104 145.773 77.104 145.773 73.984C145.773 70.912 146.325 67.888 147.429 64.912C148.533 61.888 150.141 59.2 152.253 56.848C154.413 54.496 157.029 52.6 160.101 51.16C163.173 49.72 166.677 49 170.613 49ZM170.541 95.44C173.757 95.296 176.565 94.576 178.965 93.28C181.413 91.936 183.453 90.256 185.085 88.24C186.717 86.176 187.917 83.92 188.685 81.472C189.501 79.024 189.909 76.6 189.909 74.2C189.909 71.56 189.429 68.896 188.469 66.208C187.509 63.52 186.141 61.096 184.365 58.936C182.589 56.728 180.453 54.952 177.957 53.608C175.509 52.216 172.749 51.52 169.677 51.52C166.701 51.52 164.037 52.192 161.685 53.536C159.333 54.832 157.317 56.512 155.637 58.576C154.005 60.64 152.757 62.944 151.893 65.488C151.029 68.032 150.597 70.528 150.597 72.976C150.597 75.616 151.101 78.28 152.109 80.968C153.117 83.608 154.509 86.008 156.285 88.168C158.061 90.328 160.149 92.08 162.549 93.424C164.997 94.768 167.661 95.44 170.541 95.44Z" fill="#E65100"/>
</svg>
