<svg width="266" height="201" viewBox="0 0 266 201" fill="none" xmlns="http://www.w3.org/2000/svg">
<rect width="266" height="201" fill="#E5E5E5"/>
<rect width="37" height="201" transform="matrix(-1 0 0 1 266 0)" fill="#960100"/>
<rect width="229" height="201" fill="#E65100"/>
<path d="M37.248 76.28H37.608V77H27.312V76.28H27.672C28.056 76.28 28.392 76.16 28.68 75.92C28.968 75.632 29.208 75.296 29.4 74.912C29.64 74.528 29.808 74.12 29.904 73.688C30 73.256 30.048 72.848 30.048 72.464V33.944C30.048 33.608 30 33.224 29.904 32.792C29.808 32.36 29.664 31.952 29.472 31.568C29.28 31.184 29.016 30.872 28.68 30.632C28.392 30.344 28.056 30.2 27.672 30.2H27.312V29.48H54.96V36.176H54.24C54.24 35.072 53.856 34.112 53.088 33.296C52.368 32.432 51.216 32 49.632 32H34.872V50.216H46.824C47.928 50.216 48.84 49.88 49.56 49.208C50.328 48.536 50.712 47.744 50.712 46.832H51.432V55.832H50.712C50.712 54.968 50.352 54.224 49.632 53.6C48.912 52.976 47.976 52.664 46.824 52.664H34.872V72.464C34.872 72.848 34.92 73.256 35.016 73.688C35.112 74.12 35.256 74.528 35.448 74.912C35.688 75.296 35.952 75.632 36.24 75.92C36.528 76.16 36.864 76.28 37.248 76.28ZM80.9649 28.76C84.7089 28.76 88.0689 29.432 91.0449 30.776C94.0209 32.072 96.5409 33.848 98.6049 36.104C100.717 38.312 102.325 40.904 103.429 43.88C104.581 46.808 105.157 49.88 105.157 53.096C105.157 56.696 104.485 60.008 103.141 63.032C101.845 66.056 100.045 68.648 97.7409 70.808C95.4369 72.968 92.7489 74.672 89.6769 75.92C86.6529 77.12 83.4129 77.72 79.9569 77.72C76.2609 77.72 72.9249 77.048 69.9489 75.704C67.0209 74.36 64.5249 72.584 62.4609 70.376C60.4449 68.168 58.8849 65.624 57.7809 62.744C56.6769 59.864 56.1249 56.864 56.1249 53.744C56.1249 50.672 56.6769 47.648 57.7809 44.672C58.8849 41.648 60.4929 38.96 62.6049 36.608C64.7649 34.256 67.3809 32.36 70.4529 30.92C73.5249 29.48 77.0289 28.76 80.9649 28.76ZM80.8929 75.2C84.1089 75.056 86.9169 74.336 89.3169 73.04C91.7649 71.696 93.8049 70.016 95.4369 68C97.0689 65.936 98.2689 63.68 99.0369 61.232C99.8529 58.784 100.261 56.36 100.261 53.96C100.261 51.32 99.7809 48.656 98.8209 45.968C97.8609 43.28 96.4929 40.856 94.7169 38.696C92.9409 36.488 90.8049 34.712 88.3089 33.368C85.8609 31.976 83.1009 31.28 80.0289 31.28C77.0529 31.28 74.3889 31.952 72.0369 33.296C69.6849 34.592 67.6689 36.272 65.9889 38.336C64.3569 40.4 63.1089 42.704 62.2449 45.248C61.3809 47.792 60.9489 50.288 60.9489 52.736C60.9489 55.376 61.4529 58.04 62.4609 60.728C63.4689 63.368 64.8609 65.768 66.6369 67.928C68.4129 70.088 70.5009 71.84 72.9009 73.184C75.3489 74.528 78.0129 75.2 80.8929 75.2ZM135.738 28.76C139.482 28.76 142.842 29.432 145.818 30.776C148.794 32.072 151.314 33.848 153.378 36.104C155.49 38.312 157.098 40.904 158.202 43.88C159.354 46.808 159.93 49.88 159.93 53.096C159.93 56.696 159.258 60.008 157.914 63.032C156.618 66.056 154.818 68.648 152.514 70.808C150.21 72.968 147.522 74.672 144.45 75.92C141.426 77.12 138.186 77.72 134.73 77.72C131.034 77.72 127.698 77.048 124.722 75.704C121.794 74.36 119.298 72.584 117.234 70.376C115.218 68.168 113.658 65.624 112.554 62.744C111.45 59.864 110.898 56.864 110.898 53.744C110.898 50.672 111.45 47.648 112.554 44.672C113.658 41.648 115.266 38.96 117.378 36.608C119.538 34.256 122.154 32.36 125.226 30.92C128.298 29.48 131.802 28.76 135.738 28.76ZM135.666 75.2C138.882 75.056 141.69 74.336 144.09 73.04C146.538 71.696 148.578 70.016 150.21 68C151.842 65.936 153.042 63.68 153.81 61.232C154.626 58.784 155.034 56.36 155.034 53.96C155.034 51.32 154.554 48.656 153.594 45.968C152.634 43.28 151.266 40.856 149.49 38.696C147.714 36.488 145.578 34.712 143.082 33.368C140.634 31.976 137.874 31.28 134.802 31.28C131.826 31.28 129.162 31.952 126.81 33.296C124.458 34.592 122.442 36.272 120.762 38.336C119.13 40.4 117.882 42.704 117.018 45.248C116.154 47.792 115.722 50.288 115.722 52.736C115.722 55.376 116.226 58.04 117.234 60.728C118.242 63.368 119.634 65.768 121.41 67.928C123.186 70.088 125.274 71.84 127.674 73.184C130.122 74.528 132.786 75.2 135.666 75.2ZM166.176 76.28H166.536C166.872 76.28 167.184 76.136 167.472 75.848C167.76 75.56 168 75.224 168.192 74.84C168.432 74.456 168.6 74.048 168.696 73.616C168.792 73.136 168.84 72.704 168.84 72.32V33.944C168.84 33.608 168.792 33.224 168.696 32.792C168.6 32.36 168.456 31.952 168.264 31.568C168.072 31.184 167.832 30.872 167.544 30.632C167.256 30.344 166.92 30.2 166.536 30.2H166.176V29.48H180.072C183.864 29.48 187.272 30.152 190.296 31.496C193.32 32.792 195.864 34.568 197.928 36.824C200.04 39.032 201.648 41.576 202.752 44.456C203.856 47.336 204.408 50.336 204.408 53.456C204.408 56.384 203.88 59.264 202.824 62.096C201.768 64.88 200.184 67.376 198.072 69.584C195.96 71.792 193.32 73.592 190.152 74.984C186.984 76.328 183.312 77 179.136 77H166.176V76.28ZM199.512 54.536C199.512 51.464 198.96 48.56 197.856 45.824C196.752 43.088 195.192 40.712 193.176 38.696C191.208 36.632 188.856 35 186.12 33.8C183.432 32.6 180.504 32 177.336 32H173.664V74.48H177.48C180.072 74.48 182.664 74.096 185.256 73.328C187.896 72.512 190.272 71.288 192.384 69.656C194.496 67.976 196.2 65.888 197.496 63.392C198.84 60.896 199.512 57.944 199.512 54.536ZM27.24 155.28H27.6C27.984 155.28 28.32 155.16 28.608 154.92C28.896 154.632 29.136 154.296 29.328 153.912C29.568 153.528 29.736 153.12 29.832 152.688C29.976 152.256 30.048 151.848 30.048 151.464V112.944C30.048 112.608 29.976 112.224 29.832 111.792C29.736 111.36 29.568 110.952 29.328 110.568C29.136 110.184 28.896 109.872 28.608 109.632C28.32 109.344 27.984 109.2 27.6 109.2H27.24V108.48H37.608V109.2H37.248C36.864 109.2 36.528 109.344 36.24 109.632C35.952 109.872 35.712 110.184 35.52 110.568C35.328 110.952 35.16 111.36 35.016 111.792C34.92 112.224 34.872 112.608 34.872 112.944V153.336H50.64C51.552 153.336 52.344 153.12 53.016 152.688C53.688 152.256 54.24 151.728 54.672 151.104C55.152 150.432 55.488 149.736 55.68 149.016C55.92 148.248 56.04 147.552 56.04 146.928H56.76V156H27.24V155.28ZM82.0196 107.76C85.7636 107.76 89.1236 108.432 92.0996 109.776C95.0756 111.072 97.5956 112.848 99.6596 115.104C101.772 117.312 103.38 119.904 104.484 122.88C105.636 125.808 106.212 128.88 106.212 132.096C106.212 135.696 105.54 139.008 104.196 142.032C102.9 145.056 101.1 147.648 98.7956 149.808C96.4916 151.968 93.8036 153.672 90.7316 154.92C87.7076 156.12 84.4676 156.72 81.0116 156.72C77.3156 156.72 73.9796 156.048 71.0036 154.704C68.0756 153.36 65.5796 151.584 63.5156 149.376C61.4996 147.168 59.9396 144.624 58.8356 141.744C57.7316 138.864 57.1796 135.864 57.1796 132.744C57.1796 129.672 57.7316 126.648 58.8356 123.672C59.9396 120.648 61.5476 117.96 63.6596 115.608C65.8196 113.256 68.4356 111.36 71.5076 109.92C74.5796 108.48 78.0836 107.76 82.0196 107.76ZM81.9476 154.2C85.1636 154.056 87.9716 153.336 90.3716 152.04C92.8196 150.696 94.8596 149.016 96.4916 147C98.1236 144.936 99.3236 142.68 100.092 140.232C100.908 137.784 101.316 135.36 101.316 132.96C101.316 130.32 100.836 127.656 99.8756 124.968C98.9156 122.28 97.5476 119.856 95.7716 117.696C93.9956 115.488 91.8596 113.712 89.3636 112.368C86.9156 110.976 84.1556 110.28 81.0836 110.28C78.1076 110.28 75.4436 110.952 73.0916 112.296C70.7396 113.592 68.7236 115.272 67.0436 117.336C65.4116 119.4 64.1636 121.704 63.2996 124.248C62.4356 126.792 62.0036 129.288 62.0036 131.736C62.0036 134.376 62.5076 137.04 63.5156 139.728C64.5236 142.368 65.9156 144.768 67.6916 146.928C69.4676 149.088 71.5556 150.84 73.9556 152.184C76.4036 153.528 79.0676 154.2 81.9476 154.2ZM136.793 107.76C140.537 107.76 143.897 108.432 146.873 109.776C149.849 111.072 152.369 112.848 154.433 115.104C156.545 117.312 158.153 119.904 159.257 122.88C160.409 125.808 160.985 128.88 160.985 132.096C160.985 135.696 160.313 139.008 158.969 142.032C157.673 145.056 155.873 147.648 153.569 149.808C151.265 151.968 148.577 153.672 145.505 154.92C142.481 156.12 139.241 156.72 135.785 156.72C132.089 156.72 128.753 156.048 125.777 154.704C122.849 153.36 120.353 151.584 118.289 149.376C116.273 147.168 114.713 144.624 113.609 141.744C112.505 138.864 111.953 135.864 111.953 132.744C111.953 129.672 112.505 126.648 113.609 123.672C114.713 120.648 116.321 117.96 118.433 115.608C120.593 113.256 123.209 111.36 126.281 109.92C129.353 108.48 132.857 107.76 136.793 107.76ZM136.721 154.2C139.937 154.056 142.745 153.336 145.145 152.04C147.593 150.696 149.633 149.016 151.265 147C152.897 144.936 154.097 142.68 154.865 140.232C155.681 137.784 156.089 135.36 156.089 132.96C156.089 130.32 155.609 127.656 154.649 124.968C153.689 122.28 152.321 119.856 150.545 117.696C148.769 115.488 146.633 113.712 144.137 112.368C141.689 110.976 138.929 110.28 135.857 110.28C132.881 110.28 130.217 110.952 127.865 112.296C125.513 113.592 123.497 115.272 121.817 117.336C120.185 119.4 118.937 121.704 118.073 124.248C117.209 126.792 116.777 129.288 116.777 131.736C116.777 134.376 117.281 137.04 118.289 139.728C119.297 142.368 120.689 144.768 122.465 146.928C124.241 149.088 126.329 150.84 128.729 152.184C131.177 153.528 133.841 154.2 136.721 154.2ZM177.239 155.28H177.599V156H167.303V155.28H167.663C168.047 155.28 168.383 155.136 168.671 154.848C168.959 154.56 169.199 154.224 169.391 153.84C169.631 153.456 169.799 153.048 169.895 152.616C169.991 152.136 170.039 151.704 170.039 151.32V112.944C170.039 112.608 169.991 112.224 169.895 111.792C169.799 111.36 169.631 110.952 169.391 110.568C169.199 110.184 168.959 109.872 168.671 109.632C168.383 109.344 168.071 109.2 167.735 109.2H167.375V108.48H177.671V109.2H177.311C176.927 109.2 176.591 109.344 176.303 109.632C176.015 109.872 175.751 110.184 175.511 110.568C175.319 110.952 175.151 111.36 175.007 111.792C174.911 112.224 174.863 112.608 174.863 112.944V129.648L193.151 111.504C193.439 111.168 193.583 110.784 193.583 110.352C193.583 109.584 193.295 109.2 192.719 109.2H192.359V108.48H201.143V109.2H200.783C200.111 109.2 199.415 109.44 198.695 109.92C197.975 110.4 197.255 111 196.535 111.72L181.415 126.768L197.327 150.888C197.375 150.984 197.591 151.272 197.975 151.752C198.359 152.232 198.815 152.736 199.343 153.264C199.919 153.792 200.543 154.272 201.215 154.704C201.935 155.088 202.655 155.28 203.375 155.28V156H201.647C200.207 156 198.983 155.928 197.975 155.784C197.015 155.592 196.175 155.304 195.455 154.92C194.735 154.536 194.087 154.056 193.511 153.48C192.983 152.904 192.431 152.184 191.855 151.32L177.887 130.224L174.863 133.32V151.32C174.863 151.704 174.911 152.112 175.007 152.544C175.151 152.976 175.319 153.408 175.511 153.84C175.703 154.224 175.943 154.56 176.231 154.848C176.519 155.136 176.855 155.28 177.239 155.28Z" fill="#F6F6F6"/>
<circle cx="89" cy="124" r="5" fill="#960100"/>
<circle cx="144" cy="124" r="5" fill="#960100"/>
<path d="M65 160C65 160 65.4639 177.425 110.464 177.987C155.464 178.55 155 160 155 160" stroke="#960100" stroke-width="3"/>
<path d="M226 0V201" stroke="#F6F6F6" stroke-width="6"/>
</svg>
